# xmcd
#
# Track frame offsets: 
#        187
#        24097
#        43030
#        59307
#        73720
#        110212
#        125110
#        140190
#        159037
#        181085
#
# Disc length: 2922 seconds
#
# Revision: 15
# Processed by: cddbd v1.5.2PL0 Copyright (c) Steve Scherf et al.
# Submitted via: ExactAudioCopyFreeDBPlugin 1.0
#
DISCID=8b0b680a
DTITLE=Alabama - Alabama Greatest Hits
DYEAR=1986
DGENRE=Country
TTITLE0=She and I
TTITLE1=Mountain Music
TTITLE2=Feels So Right
TTITLE3=Old Flame
TTITLE4=Tennessee River
TTITLE5=Love in the First Degree
TTITLE6=40 Hour Week (For a Livin')
TTITLE7=Why Lady Why
TTITLE8=The Fans
TTITLE9=My Home's in Alabama (Live)
EXTD=
EXTT0=
EXTT1=
EXTT2=
EXTT3=
EXTT4=
EXTT5=
EXTT6=
EXTT7=
EXTT8=
EXTT9=
PLAYORDER=
